<?xml version="1.0" encoding="utf-8"?>
<!-- Generator: Adobe Illustrator 26.0.1, SVG Export Plug-In . SVG Version: 6.00 Build 0)  -->
<svg version="1.1" id="Layer_1" xmlns="http://www.w3.org/2000/svg" xmlns:xlink="http://www.w3.org/1999/xlink" x="0px" y="0px"
	 viewBox="0 0 500 500" style="enable-background:new 0 0 500 500;" xml:space="preserve">
<style type="text/css">
	.st0{fill:#FFFFFF;}
	.st1{fill:#231F20;}
	.st2{fill:#FAE94D;}
	.st3{fill:#2FA9DC;}
</style>
<rect id="XMLID_40_" x="0" class="st1" width="500" height="500" fill="none"/>
<g id="XMLID_33_">
	<path id="XMLID_37_" class="st0" d="M374,174.86h-72.85c-0.07,0-0.12,0.06-0.12,0.12v43.61c1.32-0.38,2.61-0.75,3.87-1.1
		c3.75-1.06,8.93-2.39,14.19-3.69c0.06-0.01,0.1-0.06,0.1-0.12v-20.53c0-0.07,0.06-0.12,0.12-0.12H374
		c34.49,0,73.11-26.22,69.26-70.41c-3.04-34.97-35.72-63.44-70.82-63.44H126c-41.59,0-69.52,35.95-69.52,69.52
		c0,40.28,29.24,64.33,69.52,64.33h47.06c0.07,0,0.12,0.05,0.12,0.11c0,5.31,0,136.16,0,136.16v15.26v6.3
		c22.54-20.42,25.91-23.75,29.81-27.21c10.04-8.82,22.1-16.89,36.84-24.62c3.85-2.03,7.84-3.99,11.92-5.91
		c14.47-6.79,30.45-12.91,48.5-18.55c0.26-0.08,0.52-0.16,0.78-0.23c4.2-1.3,7.96-2.41,11.54-3.4c1.87-0.52,4.12-1.14,6.62-1.76
		c8.4-2.19,19.21-4.74,24.71-6.06l11.15-2.61c0.07-0.02,0.11-0.08,0.09-0.15l-4.69-20.07l2.77,1.66l44.07,26.47
		c0.06,0.04,0.08,0.12,0.04,0.18l-24.84,35.07l-6.4,9.03c-0.06,0.09-0.21,0.06-0.22-0.05l-3.07-17.61l-2.39,0.42l-0.03-0.15
		l-0.96,0.16c-0.88,0.16-1.66,0.29-2.23,0.44c-0.68,0.15-1.33,0.31-2,0.46l-7.72,1.34l0.08,0.43c-10.27,2.44-19.59,4.84-28.36,7.31
		c-0.65,0.18-1.3,0.36-1.92,0.54c-3.35,0.93-6.59,1.89-9.78,2.88c-2.13,0.65-4.28,1.3-6.46,2c-0.54,0.18-1.09,0.36-1.63,0.52
		c-3.97,1.3-8.02,2.65-12.14,4.1c-16.81,5.97-30.14,11.86-41.95,18.55c-11.08,6.33-18.94,12.3-25.47,19.3
		c-6.56,7.03-10.66,14.29-12.5,22.18c-3.66,15.66,0.13,33.49,9.38,46.73c11.33,16.22,29.21,21.43,48.19,17.22
		c2.64-0.59,5.24-1.33,7.79-2.23c17.99-6.34,33.74-19.94,40.92-37.81c4.88-12.12,5.77-25.45,5.88-38.52
		c0.07-8.49-0.18-16.99-0.73-25.47c-4.82,1.43-9.64,2.86-14.46,4.29c-0.99,0.29-2.03,0.62-2.7,1.41c-0.88,1.04-0.84,2.55-0.75,3.9
		c0.67,10.64,1.13,21.38-0.57,31.9c-1.7,10.52-5.7,20.92-12.96,28.72c-8.09,8.7-19.61,13.54-31.27,15.81
		c-5.92,1.15-12.4,1.61-17.66-1.33c-17.5-9.76-17.73-41.03-5.28-54.4c5.24-5.63,11.78-10.53,21.19-15.93
		c10.82-6.15,23.22-11.62,38.99-17.2c2.59-0.91,5.19-1.79,7.73-2.62c3.99-1.35,7.91-2.59,11.73-3.74c2.13-0.65,4.25-1.27,6.43-1.89
		c9.61-2.8,19.82-5.5,31.35-8.27c0.07-0.02,0.14,0.03,0.15,0.1l1.76,10.12l4.5,25.85c0.02,0.11,0.16,0.14,0.22,0.05l62.56-88.31
		c0.04-0.06,0.02-0.14-0.04-0.18l-92.52-55.57c-0.09-0.06-0.21,0.03-0.19,0.14l6.54,27.97l2.33,9.99c0.02,0.07-0.02,0.13-0.09,0.15
		c-4.66,1.11-10.8,2.59-16.59,4.03c-4.31,1.09-8.43,2.15-11.52,3.04c-2.13,0.6-4.33,1.22-6.64,1.92c-1.97,0.57-4.02,1.19-6.17,1.87
		c-10.7,3.35-20.7,6.87-30.16,10.59c-11.94,4.69-23,9.69-33.32,15.12c-15.75,8.3-28.79,16.99-39.82,26.59
		c-0.08,0.07-0.2,0.01-0.2-0.09V174.99c0-0.07-0.06-0.12-0.12-0.12H126c-30.72,0-51.36-15.45-51.36-46.18
		c0-24.81,20.64-51.37,51.36-51.37h246.55c26.6,0,51.06,21.62,52.71,48.17C427.25,157.46,399.14,174.86,374,174.86z"/>
</g>
</svg>
